# xmcd
#
# Track frame offsets: 
#        150
#        15855
#        40733
#        51785
#        68440
#        83214
#        100202
#        113780
#        132837
#        146725
#        163718
#        180264
#        196172
#        222569
#        239470
#        265942
#
# Disc length: 3774 seconds
#
# Revision: 0
# Processed by: cddbd v1.5.2PL0 Copyright (c) Steve Scherf et al.
# Submitted via: ExactAudioCopy v0.99pb3
#
DISCID=d40ebc10
DTITLE=Screamin' Jay Hawkins - Spellbound
DYEAR=2006
DGENRE=Blues
TTITLE0=I Put A Spell On You
TTITLE1=Constipation Blues
TTITLE2=Itty Bitty Pretty One
TTITLE3=Don't Deceive Me
TTITLE4=It's Only Make Believe
TTITLE5=Please Don't Leave Me
TTITLE6=Move Me
TTITLE7=Portrait Of A Man
TTITLE8=Really Love You Baby
TTITLE9=Alligator Wine
TTITLE10=Feast Of The Mau-Mau
TTITLE11=I Don't Know
TTITLE12=Same Damn Thing
TTITLE13=She Put The Whamee On Me
TTITLE14=Yellow Coat
TTITLE15=I Put A Spell On You (Live)
EXTD=
EXTT0=
EXTT1=
EXTT2=
EXTT3=
EXTT4=
EXTT5=
EXTT6=
EXTT7=
EXTT8=
EXTT9=
EXTT10=
EXTT11=
EXTT12=
EXTT13=
EXTT14=
EXTT15=
PLAYORDER=
